<svg xmlns="http://www.w3.org/2000/svg" width="30" height="30" fill="none" viewBox="0 0 30 30">
    <path fill="#282B3E" fill-rule="evenodd" d="M7.516 3.812C9.73 2.332 12.336 1.54 15 1.54c3.57.003 6.993 1.421 9.518 3.945C27.044 8.009 28.465 11.43 28.47 15c.002 2.665-.786 5.27-2.265 7.486-1.479 2.217-3.582 3.945-6.043 4.966-2.461 1.02-5.17 1.289-7.783.77-2.614-.518-5.015-1.8-6.9-3.684-1.885-1.883-3.169-4.283-3.69-6.896-.52-2.614-.254-5.323.766-7.784C3.574 7.397 5.3 5.292 7.515 3.812zm1.373 20.335c1.809 1.209 3.936 1.854 6.111 1.854 2.918 0 5.716-1.159 7.779-3.222C24.84 20.716 26 17.92 26 15.001c0-2.176-.645-4.302-1.854-6.111-1.208-1.81-2.926-3.22-4.936-4.052-2.01-.832-4.222-1.05-6.356-.626-2.133.425-4.094 1.472-5.632 3.01-1.538 1.54-2.586 3.5-3.01 5.633-.425 2.134-.207 4.346.626 6.355.832 2.01 2.242 3.729 4.051 4.937zm3.031-14.036l3.13 3.13 4.92-4.91 1.76 1.77-6.68 6.67-4.89-4.89 1.76-1.77z" clip-rule="evenodd"/>
</svg>
