<svg xmlns="http://www.w3.org/2000/svg" width="120" height="120" fill="none" viewBox="0 0 120 120">
    <path fill="#282B3E" fill-rule="evenodd" d="M95.47 9.704c3.686 1.582 7.011 3.901 9.769 6.814 5.448 5.714 8.57 13.254 8.755 21.147.185 7.893-2.58 15.57-7.755 21.533l-46.24 52.8-46.24-52.8c-5.17-5.967-7.927-13.648-7.735-21.54.192-7.893 3.321-15.43 8.775-21.14l1.2-1.2c5.646-5.32 13.174-8.182 20.928-7.957 7.755.225 15.104 3.519 20.432 9.157l2.64 2.72 2.52-2.72c2.738-2.895 6.037-5.204 9.695-6.786 3.658-1.581 7.6-2.402 11.585-2.414 4.012-.008 7.983.804 11.67 2.386zM59.998 96.838l38.64-44.32v.16c3.536-4.116 5.406-9.406 5.243-14.83-.163-5.425-2.347-10.592-6.123-14.49-1.814-1.882-3.988-3.38-6.394-4.402-2.405-1.023-4.992-1.55-7.606-1.55s-5.2.527-7.606 1.55c-2.406 1.023-4.58 2.52-6.394 4.402l-9.76 10.36-9.92-10.32c-1.735-1.848-3.817-3.337-6.128-4.38-2.31-1.042-4.804-1.62-7.338-1.697-2.534-.078-5.058.344-7.428 1.243-2.37.899-4.54 2.256-6.386 3.994l-.8.8c-3.737 3.92-5.878 9.094-6.003 14.509-.126 5.415 1.772 10.682 5.323 14.771l38.68 44.2zm-5.118-56.16h10v12.72h12.76v10h-12.76v12.68h-10v-12.68h-12.6v-10h12.6v-12.72z" clip-rule="evenodd"/>
</svg>
