<svg xmlns="http://www.w3.org/2000/svg" width="309" height="58" fill="none" viewBox="0 0 309 58">
    <path fill="#000" d="M0 46.821h7.162V0H0V46.82zm30.109.843c5.837 0 10.531-3.792 12.457-9.269l-5.476-3.009c-1.084 3.25-2.829 6.981-6.981 6.981-6.019 0-7.162-7.342-7.162-12.276 0-5.056 1.143-12.338 7.222-12.338 4.092 0 5.476 3.551 6.319 6.68l5.597-3.19c-1.986-5.054-5.236-8.725-11.976-8.725-8.667 0-14.083 6.86-14.083 17.572 0 10.653 5.477 17.573 14.083 17.573zm31.795 0c8.606 0 14.022-6.801 14.022-17.574 0-10.832-5.416-17.573-14.022-17.573-8.666 0-14.083 6.74-14.083 17.573 0 10.773 5.477 17.573 14.083 17.573zm0-5.297c-6.018 0-7.162-7.342-7.162-12.276 0-4.935 1.144-12.338 7.162-12.338s7.101 7.403 7.101 12.337c0 4.935-1.083 12.277-7.101 12.277zm22.062 4.454h6.8V22.147c1.746-1.565 4.634-4.093 7.643-4.093 3.551 0 3.852 3.49 3.852 6.62v22.147h6.801V22.869c0-8.065-4.394-10.351-8.546-10.351-3.912 0-7.102 2.046-9.75 4.272v-3.43h-6.8v33.461zm64.449.843c5.958 0 10.231-3.25 12.698-7.222l-4.273-3.792c-1.444 2.95-4.333 5.657-7.823 5.657-4.695 0-7.884-3.972-7.764-10.772h20.342c.481-12.097-4.153-19.017-13.18-19.017-8.606 0-14.083 7.221-14.083 17.572 0 10.713 5.477 17.573 14.083 17.573zm-6.921-20.944c.06-4.152 2.166-8.967 6.861-8.967 4.694 0 6.499 4.514 6.439 8.967h-13.3zm23.228 20.101h7.402l6.741-12.096 7.161 12.096h7.824l-11.013-17.573 9.689-15.888h-7.342l-6.078 10.592-6.199-10.592h-7.824l10.111 16.189-10.472 17.272zm34.905 10.893h6.801V43.69c2.227 2.408 4.814 3.972 8.064 3.972 5.657 0 12.578-4.212 12.578-17.693 0-12.758-6.981-17.452-12.277-17.452-3.611 0-6.018 1.925-8.365 4.212v-3.37h-6.801v44.354zm13.601-15.407c-2.948 0-5.416-2.588-6.8-5.055V23.05c1.505-2.407 3.791-4.513 6.861-4.513 5.777 0 6.981 7.643 6.981 11.976 0 6.92-2.708 11.795-7.042 11.795zm33.805 5.356c8.606 0 14.022-6.8 14.022-17.572 0-10.833-5.416-17.574-14.022-17.574-8.666 0-14.083 6.74-14.083 17.573 0 10.773 5.477 17.573 14.083 17.573zm0-5.295c-6.018 0-7.162-7.343-7.162-12.278 0-4.934 1.144-12.337 7.162-12.337s7.101 7.403 7.101 12.337c0 4.935-1.083 12.277-7.101 12.277zm22.062 4.453h6.8v-16.85c.903-5.959 4.514-11.556 11.977-10.533v-6.62c-.542-.12-1.565-.18-2.167-.18-4.333 0-7.523 3.19-9.689 7.222h-.121v-6.5h-6.8v33.461zm34.489.843c2.046 0 3.972-.723 5.416-1.445l-.06-5.476c-1.023.782-2.347 1.444-3.791 1.444-2.407 0-3.37-1.685-3.37-4.273V19.017H309V13.36h-7.221V1.324l-6.801 3.911v8.125h-4.574v5.657h4.574v18.716c0 6.921 3.792 9.93 8.606 9.93z"/>
</svg>
