<svg xmlns="http://www.w3.org/2000/svg" width="16" height="16" fill="none" viewBox="0 0 16 16">
    <path fill="#282B3E" fill-rule="evenodd" d="M8 .822c-1.42 0-2.81.422-3.991 1.211-1.182.79-2.103 1.912-2.646 3.225C.819 6.571.677 8.016.955 9.41c.277 1.393.962 2.674 1.967 3.678 1.006 1.005 2.286 1.688 3.68 1.965 1.394.276 2.839.133 4.151-.411 1.313-.545 2.434-1.466 3.223-2.648.789-1.182 1.21-2.572 1.208-3.993-.002-1.904-.76-3.73-2.107-5.075C11.73 1.58 9.904.824 8 .822zm0 13.046c-1.16 0-2.294-.345-3.259-.99-.965-.644-1.717-1.56-2.16-2.632-.445-1.072-.56-2.252-.335-3.39.227-1.138.786-2.183 1.606-3.003.82-.82 1.866-1.38 3.004-1.606 1.138-.226 2.317-.11 3.39.334 1.072.444 1.988 1.196 2.632 2.16.645.965.99 2.1.99 3.26 0 1.556-.619 3.048-1.72 4.148-1.1 1.1-2.592 1.719-4.148 1.719zm.672-7.009H7.34v4.368h1.333V6.86zM7.34 4.577h1.333v1.29H7.34v-1.29z" clip-rule="evenodd"/>
</svg>
