<svg xmlns="http://www.w3.org/2000/svg" width="20" height="20" fill="none" viewBox="0 0 20 20">
    <path fill="#282B3E" fill-rule="evenodd" d="M10 1.027c-1.777 0-3.513.527-4.99 1.514-1.477.987-2.628 2.39-3.308 4.031-.679 1.642-.856 3.448-.51 5.19.348 1.742 1.204 3.342 2.46 4.598 1.257 1.255 2.857 2.11 4.6 2.456 1.742.345 3.548.167 5.189-.514 1.64-.68 3.042-1.833 4.028-3.31.986-1.478 1.512-3.215 1.51-4.991-.003-2.38-.95-4.662-2.634-6.344C14.662 1.975 12.38 1.03 10 1.027zm0 16.307c-1.45 0-2.869-.43-4.075-1.236s-2.146-1.951-2.7-3.291c-.556-1.34-.7-2.814-.418-4.237.283-1.423.982-2.73 2.007-3.755C5.84 3.79 7.146 3.091 8.57 2.808c1.422-.283 2.897-.137 4.237.418 1.34.555 2.485 1.495 3.291 2.7.806 1.206 1.236 2.624 1.236 4.075 0 1.945-.773 3.81-2.148 5.185-1.375 1.375-3.24 2.148-5.185 2.148zm.84-8.76H9.172v5.46h1.666v-5.46zM9.172 5.72h1.666v1.613H9.173V5.721z" clip-rule="evenodd"/>
</svg>
