<svg xmlns="http://www.w3.org/2000/svg" width="30" height="30" fill="none" viewBox="0 0 30 30">
    <path fill="#282B3E" d="M27.26 18.87l-.54-.55c-.875-.87-2-1.445-3.216-1.645-1.217-.201-2.466-.017-3.574.526l-.18.09-7.06-7.05.09-.18c.676-1.426.764-3.061.244-4.551-.52-1.49-1.607-2.715-3.024-3.41-1.412-.68-3.035-.772-4.515-.259-1.48.513-2.697 1.592-3.385 3-.538 1.12-.714 2.38-.504 3.606.21 1.225.794 2.355 1.674 3.234l15 15.07c1.123 1.11 2.64 1.734 4.22 1.734 1.58 0 3.097-.623 4.22-1.735 1.03-1.024 1.653-2.387 1.755-3.836.1-1.45-.327-2.886-1.205-4.044zM25 25c-.322.324-.704.581-1.126.757-.42.175-.873.265-1.33.265-.456 0-.907-.09-1.329-.265-.421-.176-.804-.433-1.125-.757L5 9.91c-.52-.51-.866-1.171-.988-1.89-.122-.718-.014-1.456.308-2.11.199-.407.477-.77.817-1.07.341-.3.738-.528 1.167-.674.43-.145.884-.203 1.336-.171.453.031.894.152 1.3.355.41.2.778.479 1.081.82.303.343.535.742.683 1.174.148.432.208.89.178 1.346-.03.456-.15.901-.352 1.31l-.87 1.78 9.59 9.58 1.75-.91c.641-.314 1.364-.42 2.069-.303.704.116 1.355.45 1.86.954l.36.36c.501.667.747 1.49.694 2.323-.053.832-.402 1.618-.983 2.216z"/>
</svg>
