<svg xmlns="http://www.w3.org/2000/svg" width="20" height="20" fill="none" viewBox="0 0 20 20">
    <path fill="#282B3E" d="M10.326 1.334c-2.153-.008-4.23.794-5.82 2.246-1.589 1.452-2.574 3.45-2.76 5.594l1.66.16c.127-1.341.64-2.617 1.479-3.672.838-1.055 1.965-1.844 3.243-2.27 1.278-.427 2.653-.473 3.957-.133 1.303.34 2.48 1.053 3.387 2.05.907.996 1.504 2.235 1.72 3.565.216 1.33.04 2.694-.505 3.926-.545 1.233-1.436 2.28-2.566 3.015-1.129.735-2.447 1.126-3.795 1.126-1.317-.008-2.605-.387-3.717-1.095-1.11-.708-2-1.715-2.563-2.905H6v-1.607H1.053v4.947h1.666V14c.717 1.347 1.778 2.48 3.076 3.283 1.298.803 2.785 1.247 4.31 1.287 1.526.04 3.035-.326 4.373-1.06 1.338-.735 2.457-1.81 3.242-3.12.786-1.307 1.21-2.8 1.23-4.327.02-1.526-.367-3.03-1.119-4.357-.752-1.328-1.843-2.433-3.161-3.201-1.319-.768-2.818-1.173-4.344-1.172z"/>
</svg>
