<svg xmlns="http://www.w3.org/2000/svg" width="120" height="120" fill="none" viewBox="0 0 120 120">
    <path fill="#231F20" fill-rule="evenodd" d="M29.965 15.042C38.861 9.123 49.314 5.976 60 6c14.294.053 27.986 5.763 38.083 15.882C108.178 32.001 113.858 45.706 113.879 60c0 10.685-3.17 21.13-9.109 30.013-5.939 8.883-14.38 15.804-24.254 19.888-9.874 4.084-20.738 5.146-31.216 3.053-10.478-2.094-20.1-7.249-27.647-14.813-7.547-7.564-12.681-17.197-14.751-27.68-2.07-10.483-.984-21.344 3.122-31.21 4.106-9.864 11.046-18.29 19.941-24.209zm5.589 81.543C42.79 101.42 51.297 104 59.999 104c11.67 0 22.861-4.636 31.113-12.887C99.363 82.86 103.999 71.67 103.999 60c0-8.702-2.581-17.21-7.415-24.445-4.835-7.236-11.707-12.875-19.747-16.206-8.04-3.33-16.887-4.201-25.422-2.503-8.535 1.697-16.375 5.888-22.529 12.041-6.153 6.154-10.344 13.994-12.042 22.53-1.697 8.534-.826 17.381 2.504 25.421s8.97 14.912 16.206 19.747zM51.11 65.298c2.631-1.758 5.725-2.696 8.89-2.696 4.243 0 8.312 1.685 11.313 4.686 3 3 4.686 7.07 4.686 11.314 0 3.164-.938 6.257-2.696 8.889-1.758 2.63-4.257 4.682-7.18 5.893-2.924 1.21-6.142 1.528-9.245.91-3.104-.617-5.955-2.141-8.192-4.379-2.238-2.237-3.762-5.088-4.38-8.192-.617-3.104-.3-6.32.911-9.244 1.211-2.924 3.262-5.423 5.893-7.181zm5.667 17.926c.954.637 2.075.978 3.222.978 1.538 0 3.014-.611 4.101-1.7 1.088-1.087 1.7-2.562 1.7-4.1 0-1.148-.34-2.269-.978-3.223-.638-.954-1.543-1.697-2.603-2.136-1.06-.439-2.226-.554-3.351-.33-1.125.224-2.159.776-2.97 1.587-.811.812-1.364 1.845-1.587 2.97-.224 1.125-.11 2.291.33 3.351.439 1.06 1.182 1.966 2.136 2.603zm-9.258-39.783h-9.68v10h9.68v-10zm24.84 0h9.68v10h-9.68v-10z" clip-rule="evenodd"/>
</svg>
